<svg width="64" height="71" viewBox="0 0 64 71" fill="none" xmlns="http://www.w3.org/2000/svg">
<path d="M36.1326 5.98351L38.8298 2.87751L34.7663 3.51831L13.1826 6.92207L12.1007 7.09269L11.9338 8.17522L3.51751 62.7715L2.90711 66.7311L5.96788 64.146L11.1263 59.7891L11.5543 59.4277L11.6405 58.8741L16.905 25.081L24.399 23.7686L25.4972 23.5763L25.6297 22.4693L26.0369 19.0655L26.2707 17.1112L24.3244 17.404L18.1992 18.3255L19.0745 12.7073L31.5725 10.7017L32.1103 10.6154L32.4674 10.2042L36.1326 5.98351Z" fill="#F2C94C" stroke="black" stroke-width="3"/>
<path d="M34.9328 11.2197L35.5956 6.74318L32.3902 9.9375L27.1708 15.1388L26.8095 15.4989L26.7426 16.0046L24.7965 30.7115L22.5295 32.6882L21.3685 33.7006L22.4113 34.8343L23.771 36.3125L20.519 56.5676L20.4066 57.2672L20.8756 57.7982L24.5797 61.9929L26.6672 64.3569L27.1838 61.2457L30.9772 38.3997L31.763 37.6166L42.1779 51.6587L42.7188 52.388L43.6158 52.2469L50.0138 51.2402L52.4851 50.8513L50.9778 48.8546L37.9423 31.5869L56.0816 12.7105L59.0967 9.57279L54.7886 10.1861L48.8957 11.025L48.3944 11.0964L48.0389 11.4571L32.575 27.1452L34.9328 11.2197Z" fill="#F2C94C" stroke="black" stroke-width="3"/>
</svg>
